<svg xmlns="http://www.w3.org/2000/svg" width="139" height="24" fill="none"><path fill="#000" d="M1.3 19V6.04h1.8v5.76h.68L6.1 6.04h1.8L5.36 12.2 8.23 19H6.42l-2.63-6.32h-.68V19H1.3Zm7.42 0 2.75-12.96h1.74L15.98 19h-1.71l-.6-3.26h-2.63L10.4 19h-1.7Zm2.56-4.56h2.16L12.35 8.6l-1.07 5.84ZM18.3 19V7.38h-2.2V6.04h6.14v1.34H20.1V19H18.3Zm4.48 0 2.75-12.96h1.75L30.04 19h-1.7l-.6-3.26H25.1L24.48 19h-1.7Zm2.56-4.56h2.16L26.41 8.6l-1.07 5.84ZM30.38 19v-1.34c.24 0 .45 0 .64-.05.2-.04.38-.15.53-.3.16-.17.3-.42.42-.76a8 8 0 0 0 .3-1.39c.09-.59.16-1.33.23-2.22l.43-6.9h5.7V19h-1.81V7.38h-2.34l-.3 5.56c-.06.83-.13 1.58-.21 2.25a9.03 9.03 0 0 1-.39 1.75c-.16.49-.38.9-.65 1.23-.27.32-.61.55-1.03.69-.41.13-.92.18-1.52.14Zm13.59.14c-.88 0-1.57-.17-2.1-.5a2.8 2.8 0 0 1-1.12-1.46 6.78 6.78 0 0 1-.33-2.24v-4.92c0-.85.1-1.58.33-2.19.24-.62.61-1.09 1.12-1.4.53-.34 1.22-.5 2.1-.5.87 0 1.57.16 2.08.5.51.32.88.8 1.1 1.4.24.61.35 1.34.35 2.2v4.92a6.3 6.3 0 0 1-.35 2.21c-.22.63-.59 1.12-1.1 1.47a3.7 3.7 0 0 1-2.08.51Zm0-1.42c.48 0 .84-.1 1.09-.29.24-.2.4-.48.5-.83.08-.36.12-.78.12-1.26V9.66c0-.48-.04-.9-.13-1.24a1.35 1.35 0 0 0-.5-.8c-.24-.19-.6-.28-1.08-.28-.48 0-.85.1-1.1.28-.25.19-.42.45-.5.8-.09.35-.13.76-.13 1.24v5.68c0 .48.04.9.13 1.26.08.35.25.63.5.83.25.2.62.29 1.1.29ZM49.28 19V6.04h4.93v1.34h-3.12V19h-1.8Zm9.83 0V6.04h3.22c.77 0 1.4.14 1.85.43.47.28.81.68 1.03 1.22a5.22 5.22 0 0 1-.05 3.71c-.24.5-.59.9-1.06 1.17-.47.26-1.05.4-1.76.4h-1.42V19H59.1Zm1.8-7.33h.84c.52 0 .93-.06 1.23-.17.3-.12.51-.32.64-.61a5.4 5.4 0 0 0 .05-2.67.97.97 0 0 0-.56-.7c-.29-.12-.74-.18-1.34-.18h-.85v4.33ZM66.8 19V6.04h2.6c.87 0 1.58.12 2.15.35.56.23.98.6 1.25 1.1a5.54 5.54 0 0 1 .26 3.36c-.11.41-.28.76-.52 1.05-.23.27-.54.48-.93.6l1.84 6.5h-1.74L70 12.92h-1.4V19H66.8Zm1.8-7.38h.7c.5 0 .92-.06 1.24-.19.32-.13.56-.34.7-.65.15-.31.23-.75.23-1.3 0-.76-.14-1.3-.42-1.63-.27-.34-.82-.51-1.64-.51h-.8v4.28Zm9.8 7.52c-.87 0-1.57-.17-2.09-.5a2.8 2.8 0 0 1-1.12-1.46 6.78 6.78 0 0 1-.34-2.24v-4.92c0-.85.12-1.58.34-2.19.23-.62.6-1.09 1.12-1.4.52-.34 1.22-.5 2.1-.5.87 0 1.56.16 2.08.5.5.32.88.8 1.1 1.4.23.61.35 1.34.35 2.2v4.92a6.3 6.3 0 0 1-.35 2.21c-.22.63-.6 1.12-1.1 1.47a3.7 3.7 0 0 1-2.08.51Zm0-1.42c.49 0 .85-.1 1.1-.29.24-.2.4-.48.49-.83.09-.36.13-.78.13-1.26V9.66c0-.48-.04-.9-.13-1.24a1.35 1.35 0 0 0-.5-.8c-.24-.19-.6-.28-1.08-.28-.48 0-.85.1-1.1.28-.25.19-.42.45-.5.8-.09.35-.13.76-.13 1.24v5.68c0 .48.04.9.13 1.26.08.35.25.63.5.83.25.2.62.29 1.1.29Z"/><path stroke="#000" stroke-width="2" d="M98 12h18"/><path fill="#000" d="m122 12-6.75 5.2V6.8L122 12Z"/></svg>