<svg xmlns="http://www.w3.org/2000/svg" width="134" height="24" fill="none"><path fill="#000" d="M1.38 19V6.04h1.8v5.76h.68l2.32-5.76h1.8L5.42 12.2 8.3 19H6.5l-2.63-6.32h-.69V19h-1.8Zm7.42 0 2.75-12.96h1.74L16.06 19h-1.71l-.6-3.26h-2.63L10.49 19H8.8Zm2.56-4.56h2.16l-1.1-5.84-1.06 5.84ZM18.38 19V7.38h-2.2V6.04h6.13v1.34H20.2V19h-1.81Zm4.48 0L25.6 6.04h1.74L30.12 19h-1.7l-.6-3.26h-2.64L24.55 19h-1.7Zm2.56-4.56h2.16L26.49 8.6l-1.07 5.84ZM30.46 19v-1.34c.24 0 .45 0 .64-.05.2-.04.38-.15.53-.3.16-.17.3-.42.42-.76.11-.34.21-.8.3-1.39.09-.59.16-1.33.22-2.22l.44-6.9h5.7V19h-1.82V7.38h-2.33l-.3 5.56c-.06.83-.13 1.58-.21 2.25a9.02 9.02 0 0 1-.39 1.75c-.16.49-.38.9-.65 1.23-.27.32-.61.55-1.03.69-.41.13-.92.18-1.52.14Zm13.59.14c-.88 0-1.58-.17-2.1-.5a2.8 2.8 0 0 1-1.12-1.46 6.78 6.78 0 0 1-.34-2.24v-4.92c0-.85.12-1.58.34-2.19.24-.62.6-1.09 1.12-1.4.52-.34 1.22-.5 2.1-.5.87 0 1.56.16 2.08.5.5.32.88.8 1.1 1.4.24.61.35 1.34.35 2.2v4.92c0 .84-.11 1.58-.35 2.21-.22.63-.6 1.12-1.1 1.47a3.7 3.7 0 0 1-2.08.51Zm0-1.42c.48 0 .84-.1 1.08-.29.25-.2.42-.48.5-.83.09-.36.13-.78.13-1.26V9.66c0-.48-.04-.9-.13-1.24a1.35 1.35 0 0 0-.5-.8c-.24-.19-.6-.28-1.08-.28-.48 0-.85.1-1.1.28-.25.19-.42.45-.5.8-.09.35-.13.76-.13 1.24v5.68c0 .48.04.9.13 1.26.08.35.25.63.5.83.25.2.62.29 1.1.29ZM49.36 19V6.04h4.93v1.34h-3.12V19h-1.81Zm12.88.14c-.74 0-1.37-.16-1.87-.48-.49-.32-.86-.76-1.12-1.32a5.5 5.5 0 0 1-.45-1.97l1.6-.43c.04.45.1.9.21 1.32.12.43.3.78.56 1.06.26.27.61.4 1.07.4.47 0 .82-.13 1.06-.38.25-.27.37-.65.37-1.14 0-.59-.14-1.06-.4-1.4-.27-.37-.6-.73-1.01-1.1l-2.18-1.92a3.69 3.69 0 0 1-.94-1.21c-.2-.45-.3-1-.3-1.65 0-.95.27-1.69.81-2.2a3.08 3.08 0 0 1 2.23-.8c.5 0 .96.08 1.34.22.4.12.72.33.98.6.26.28.47.63.62 1.06.16.42.27.9.32 1.47l-1.54.42a6.2 6.2 0 0 0-.19-1.17c-.1-.36-.26-.65-.51-.86-.23-.23-.58-.34-1.02-.34-.45 0-.8.12-1.06.37-.25.23-.37.58-.37 1.05 0 .4.07.72.2.98a3 3 0 0 0 .65.78l2.2 1.92c.48.43.91.94 1.29 1.54.37.59.56 1.29.56 2.1 0 .64-.14 1.2-.4 1.66a2.7 2.7 0 0 1-1.1 1.06c-.47.24-1 .36-1.6.36Zm4.51-.14V6.04h1.8V17.7h3.32V19h-5.12Zm6.46 0V6.04h1.77V19h-1.77Zm3.84 0 .24-12.96h1.77l2.29 10.51 2.3-10.51h1.76L85.65 19H84.2l-.15-9.4-2.19 9.4h-1.02l-2.18-9.4-.14 9.4h-1.47Z"/><path stroke="#000" stroke-width="2" d="M102 12h18"/><path fill="#000" d="m126 12-6.75 5.2V6.8L126 12Z"/></svg>